<svg width="1440" height="190" viewBox="0 0 1440 190" fill="none" xmlns="http://www.w3.org/2000/svg">
<g opacity="0.4">
<mask id="path-1-outside-1" maskUnits="userSpaceOnUse" x="-687" y="-58" width="2615" height="248" fill="black">
<rect fill="white" x="-687" y="-58" width="2615" height="248"/>
<path d="M-609.476 -12.3799H-685V-53.2738H-487.003V-12.3799H-562.528V185.274H-609.476V-12.3799ZM-465.079 -53.2738H-418.131V45.2123H-307.226V-53.2738H-260.279V185.274H-307.226V86.1062H-418.131V185.274H-465.079V-53.2738ZM-188.637 185.274C-198.39 185.274 -206.328 182.32 -212.451 176.413C-218.575 170.507 -221.637 162.782 -221.637 153.24V-53.2738H-39.9696V-12.3799H-174.689V42.8268H-50.1757V83.7207H-174.689V144.38H-39.9696V185.274H-188.637ZM83.1882 -53.2738H130.136V45.2123H241.041V-53.2738H287.989V185.274H241.041V86.1062H130.136V185.274H83.1882V-53.2738ZM466.113 129.726H376.98L355.888 185.274H306.899L400.114 -53.2738H421.206C435.948 -53.2738 445.928 -46.4581 451.144 -32.8268L535.854 185.274H486.865L466.113 129.726ZM389.568 90.1955H453.525L421.887 4.31844H421.547L389.568 90.1955ZM579.418 -12.3799H503.894V-53.2738H701.89V-12.3799H626.366V185.274H579.418V-12.3799ZM793.819 188C776.355 188 760.933 184.251 747.552 176.754C734.397 169.257 724.191 158.693 716.933 145.061C709.676 131.203 706.047 115.3 706.047 97.352V34.648C706.047 16.7002 709.676 0.91061 716.933 -12.7207C724.418 -26.5791 734.851 -37.257 748.232 -44.7542C761.84 -52.2514 777.489 -56 795.18 -56H831.241C848.251 -56 863.22 -52.365 876.147 -45.095C889.075 -37.825 899.054 -27.6015 906.085 -14.4246C913.342 -1.47487 916.971 13.6331 916.971 30.8994H870.704C870.704 17.2682 867.075 6.36312 859.818 -1.81565C852.56 -10.2216 843.034 -14.4246 831.241 -14.4246H795.18C782.479 -14.4246 772.273 -9.65364 764.562 -0.111736C756.85 9.20298 752.995 21.4711 752.995 36.6927V95.3073C752.995 110.529 756.737 122.911 764.221 132.453C771.706 141.767 781.572 146.425 793.819 146.425H830.56C842.581 146.425 852.333 141.767 859.818 132.453C867.529 123.138 871.384 110.87 871.384 95.648H917.652C917.652 114.05 914.023 130.294 906.765 144.38C899.508 158.238 889.302 169.03 876.147 176.754C862.993 184.251 847.797 188 830.56 188H793.819ZM943.669 -53.2738H990.617V45.2123H1101.52V-53.2738H1148.47V185.274H1101.52V86.1062H990.617V185.274H943.669V-53.2738ZM1314.72 185.274C1304.96 185.274 1297.03 182.32 1290.9 176.413C1284.78 170.507 1281.72 162.782 1281.72 153.24V-53.2738H1400.11C1421.65 -53.2738 1438.89 -48.162 1451.82 -37.9386C1464.97 -27.7151 1471.55 -13.9702 1471.55 3.29608V20.3352C1471.55 27.8324 1469.62 34.9888 1465.76 41.8045C1462.14 48.6201 1456.92 54.1862 1450.12 58.5028V58.8436C1461 62.7058 1469.73 68.9534 1476.31 77.5866C1483.11 86.2197 1486.52 95.8752 1486.52 106.553V124.274C1486.52 142.903 1479.71 157.784 1466.1 168.916C1452.72 179.821 1434.58 185.274 1411.67 185.274H1314.72ZM1400.11 45.5531C1407.36 45.5531 1413.26 43.2812 1417.8 38.7374C1422.33 33.9665 1424.6 27.7188 1424.6 19.9944V8.40781C1424.6 2.04654 1422.22 -2.9516 1417.46 -6.5866C1412.69 -10.4488 1406.34 -12.3799 1398.41 -12.3799H1328.66V45.5531H1400.11ZM1408.27 144.38C1418.25 144.38 1425.96 142.449 1431.4 138.587C1436.85 134.497 1439.57 128.818 1439.57 121.547V106.553C1439.57 99.9646 1437.19 94.6257 1432.43 90.5363C1427.66 86.4469 1421.31 84.4022 1413.37 84.4022H1328.66V144.38H1408.27ZM1597.23 188C1579.31 188 1563.44 184.251 1549.6 176.754C1535.99 169.03 1525.33 158.352 1517.62 144.721C1510.14 130.862 1506.39 114.845 1506.39 96.6704V35.3296C1506.39 17.1546 1510.14 1.25139 1517.62 -12.3799C1525.33 -26.2384 1535.99 -36.9162 1549.6 -44.4134C1563.44 -52.1378 1579.31 -56 1597.23 -56H1633.29C1651.21 -56 1666.97 -52.1378 1680.58 -44.4134C1694.41 -36.9162 1705.07 -26.2384 1712.56 -12.3799C1720.27 1.25139 1724.12 17.1546 1724.12 35.3296V96.6704C1724.12 114.845 1720.27 130.862 1712.56 144.721C1705.07 158.352 1694.41 169.03 1680.58 176.754C1666.97 184.251 1651.21 188 1633.29 188H1597.23ZM1633.29 146.425C1646.44 146.425 1656.99 141.654 1664.93 132.112C1673.09 122.57 1677.18 110.074 1677.18 94.6257V37.3743C1677.18 21.9255 1673.09 9.43016 1664.93 -0.111736C1656.99 -9.65364 1646.44 -14.4246 1633.29 -14.4246H1597.23C1584.07 -14.4246 1573.41 -9.65364 1565.25 -0.111736C1557.31 9.43016 1553.34 21.9255 1553.34 37.3743V94.6257C1553.34 110.074 1557.31 122.57 1565.25 132.112C1573.41 141.654 1584.07 146.425 1597.23 146.425H1633.29ZM1803.53 -12.3799H1728V-53.2738H1926V-12.3799H1850.48V185.274H1803.53V-12.3799Z"/>
</mask>
<path d="M-609.476 -12.3799H-685V-53.2738H-487.003V-12.3799H-562.528V185.274H-609.476V-12.3799ZM-465.079 -53.2738H-418.131V45.2123H-307.226V-53.2738H-260.279V185.274H-307.226V86.1062H-418.131V185.274H-465.079V-53.2738ZM-188.637 185.274C-198.39 185.274 -206.328 182.32 -212.451 176.413C-218.575 170.507 -221.637 162.782 -221.637 153.24V-53.2738H-39.9696V-12.3799H-174.689V42.8268H-50.1757V83.7207H-174.689V144.38H-39.9696V185.274H-188.637ZM83.1882 -53.2738H130.136V45.2123H241.041V-53.2738H287.989V185.274H241.041V86.1062H130.136V185.274H83.1882V-53.2738ZM466.113 129.726H376.98L355.888 185.274H306.899L400.114 -53.2738H421.206C435.948 -53.2738 445.928 -46.4581 451.144 -32.8268L535.854 185.274H486.865L466.113 129.726ZM389.568 90.1955H453.525L421.887 4.31844H421.547L389.568 90.1955ZM579.418 -12.3799H503.894V-53.2738H701.89V-12.3799H626.366V185.274H579.418V-12.3799ZM793.819 188C776.355 188 760.933 184.251 747.552 176.754C734.397 169.257 724.191 158.693 716.933 145.061C709.676 131.203 706.047 115.3 706.047 97.352V34.648C706.047 16.7002 709.676 0.91061 716.933 -12.7207C724.418 -26.5791 734.851 -37.257 748.232 -44.7542C761.84 -52.2514 777.489 -56 795.18 -56H831.241C848.251 -56 863.22 -52.365 876.147 -45.095C889.075 -37.825 899.054 -27.6015 906.085 -14.4246C913.342 -1.47487 916.971 13.6331 916.971 30.8994H870.704C870.704 17.2682 867.075 6.36312 859.818 -1.81565C852.56 -10.2216 843.034 -14.4246 831.241 -14.4246H795.18C782.479 -14.4246 772.273 -9.65364 764.562 -0.111736C756.85 9.20298 752.995 21.4711 752.995 36.6927V95.3073C752.995 110.529 756.737 122.911 764.221 132.453C771.706 141.767 781.572 146.425 793.819 146.425H830.56C842.581 146.425 852.333 141.767 859.818 132.453C867.529 123.138 871.384 110.87 871.384 95.648H917.652C917.652 114.05 914.023 130.294 906.765 144.38C899.508 158.238 889.302 169.03 876.147 176.754C862.993 184.251 847.797 188 830.56 188H793.819ZM943.669 -53.2738H990.617V45.2123H1101.52V-53.2738H1148.47V185.274H1101.52V86.1062H990.617V185.274H943.669V-53.2738ZM1314.72 185.274C1304.96 185.274 1297.03 182.32 1290.9 176.413C1284.78 170.507 1281.72 162.782 1281.72 153.24V-53.2738H1400.11C1421.65 -53.2738 1438.89 -48.162 1451.82 -37.9386C1464.97 -27.7151 1471.55 -13.9702 1471.55 3.29608V20.3352C1471.55 27.8324 1469.62 34.9888 1465.76 41.8045C1462.14 48.6201 1456.92 54.1862 1450.12 58.5028V58.8436C1461 62.7058 1469.73 68.9534 1476.31 77.5866C1483.11 86.2197 1486.52 95.8752 1486.52 106.553V124.274C1486.52 142.903 1479.71 157.784 1466.1 168.916C1452.72 179.821 1434.58 185.274 1411.67 185.274H1314.72ZM1400.11 45.5531C1407.36 45.5531 1413.26 43.2812 1417.8 38.7374C1422.33 33.9665 1424.6 27.7188 1424.6 19.9944V8.40781C1424.6 2.04654 1422.22 -2.9516 1417.46 -6.5866C1412.69 -10.4488 1406.34 -12.3799 1398.41 -12.3799H1328.66V45.5531H1400.11ZM1408.27 144.38C1418.25 144.38 1425.96 142.449 1431.4 138.587C1436.85 134.497 1439.57 128.818 1439.57 121.547V106.553C1439.57 99.9646 1437.19 94.6257 1432.43 90.5363C1427.66 86.4469 1421.31 84.4022 1413.37 84.4022H1328.66V144.38H1408.27ZM1597.23 188C1579.31 188 1563.44 184.251 1549.6 176.754C1535.99 169.03 1525.33 158.352 1517.62 144.721C1510.14 130.862 1506.39 114.845 1506.39 96.6704V35.3296C1506.39 17.1546 1510.14 1.25139 1517.62 -12.3799C1525.33 -26.2384 1535.99 -36.9162 1549.6 -44.4134C1563.44 -52.1378 1579.31 -56 1597.23 -56H1633.29C1651.21 -56 1666.97 -52.1378 1680.58 -44.4134C1694.41 -36.9162 1705.07 -26.2384 1712.56 -12.3799C1720.27 1.25139 1724.12 17.1546 1724.12 35.3296V96.6704C1724.12 114.845 1720.27 130.862 1712.56 144.721C1705.07 158.352 1694.41 169.03 1680.58 176.754C1666.97 184.251 1651.21 188 1633.29 188H1597.23ZM1633.29 146.425C1646.44 146.425 1656.99 141.654 1664.93 132.112C1673.09 122.57 1677.18 110.074 1677.18 94.6257V37.3743C1677.18 21.9255 1673.09 9.43016 1664.93 -0.111736C1656.99 -9.65364 1646.44 -14.4246 1633.29 -14.4246H1597.23C1584.07 -14.4246 1573.41 -9.65364 1565.25 -0.111736C1557.31 9.43016 1553.34 21.9255 1553.34 37.3743V94.6257C1553.34 110.074 1557.31 122.57 1565.25 132.112C1573.41 141.654 1584.07 146.425 1597.23 146.425H1633.29ZM1803.53 -12.3799H1728V-53.2738H1926V-12.3799H1850.48V185.274H1803.53V-12.3799Z" stroke="url(#paint0_linear)" stroke-width="4" mask="url(#path-1-outside-1)"/>
</g>
<defs>
<linearGradient id="paint0_linear" x1="1616.8" y1="161.16" x2="1594.01" y2="-174.739" gradientUnits="userSpaceOnUse">
<stop stop-color="#DEFB48"/>
<stop offset="1" stop-color="#03B3FF"/>
</linearGradient>
</defs>
</svg>
